<svg xmlns="http://www.w3.org/2000/svg" viewBox="0 0 865.89 253.88"><defs><style>.cls-1{font-size:170px;fill:#595959;font-family:AvenirNext-Regular, Avenir Next;}.cls-2{letter-spacing:-0.01em;}.cls-3{letter-spacing:-0.02em;}.cls-4{fill:#e02d50;}.cls-5{fill:#bf1e39;}.cls-6{fill:#ff635a;}.cls-7{fill:#ff8470;}.cls-8{fill:#ffd772;}.cls-9{fill:#ffbb71;}</style></defs><title>dealAsset 1</title><g id="Layer_2" data-name="Layer 2"><g id="Layer_1-2" data-name="Layer 1"><text class="cls-1" transform="translate(0 154.67)">D<tspan class="cls-2" x="128.69" y="0">e</tspan><tspan x="224.91" y="0" xml:space="preserve">al    </tspan><tspan class="cls-3" x="528.53" y="0">F</tspan><tspan x="621.01" y="0">ye</tspan></text><polygon class="cls-4" points="437.61 170.29 413.99 102.71 460.38 102.92 437.61 170.29"/><polygon class="cls-5" points="437.61 170.29 466.36 134.42 460.38 102.92 437.61 170.29"/><polygon class="cls-6" points="413.99 102.71 460.38 102.92 439.13 62.26 413.99 102.71"/><polygon class="cls-7" points="439.13 62.26 460.38 102.92 461.81 34.21 439.13 62.26"/><polygon class="cls-8" points="439.13 62.26 461.81 34.21 429.28 0 439.13 62.26"/><polygon class="cls-9" points="413.99 102.71 439.13 62.26 434.4 32.62 413.99 102.71"/><polygon class="cls-8" points="488.18 50.93 494 38.6 478.44 11.51 488.18 50.93"/><polygon class="cls-4" points="429.23 181.13 417.31 147.44 388.65 123.2 429.23 181.13"/><polygon class="cls-6" points="388.65 123.2 406.05 137.74 399.18 105.91 388.65 123.2"/><polygon class="cls-5" points="388.65 123.2 406.91 169.72 429.23 181.13 388.65 123.2"/><polyline class="cls-7" points="472.56 82.59 494 62.26 494 38.6"/><polygon class="cls-9" points="483.31 60.59 488.18 50.93 478.44 11.51 483.31 60.59"/></g></g></svg>