<svg xmlns="http://www.w3.org/2000/svg" viewBox="0 0 105.35 181.13"><defs><style>.cls-1{fill:#e02d50;}.cls-2{fill:#bf1e39;}.cls-3{fill:#ff635a;}.cls-4{fill:#ff8470;}.cls-5{fill:#ffd772;}.cls-6{fill:#ffbb71;}</style></defs><title>flameAsset 2</title><g id="Layer_2" data-name="Layer 2"><g id="Layer_1-2" data-name="Layer 1"><polygon class="cls-1" points="48.96 170.29 25.34 102.71 71.73 102.92 48.96 170.29"/><polygon class="cls-2" points="48.96 170.29 77.71 134.42 71.73 102.92 48.96 170.29"/><polygon class="cls-3" points="25.34 102.71 71.73 102.92 50.49 62.26 25.34 102.71"/><polygon class="cls-4" points="50.49 62.26 71.73 102.92 73.16 34.21 50.49 62.26"/><polygon class="cls-5" points="50.49 62.26 73.16 34.21 40.64 0 50.49 62.26"/><polygon class="cls-6" points="25.34 102.71 50.49 62.26 45.75 32.62 25.34 102.71"/><polygon class="cls-5" points="99.53 50.93 105.35 38.6 89.79 11.51 99.53 50.93"/><polygon class="cls-1" points="40.58 181.13 28.66 147.44 0 123.2 40.58 181.13"/><polygon class="cls-3" points="0 123.2 17.4 137.74 10.54 105.91 0 123.2"/><polygon class="cls-2" points="0 123.2 18.26 169.72 40.58 181.13 0 123.2"/><polyline class="cls-4" points="83.91 82.59 105.35 62.26 105.35 38.6"/><polygon class="cls-6" points="94.66 60.59 99.53 50.93 89.79 11.51 94.66 60.59"/></g></g></svg>